<svg viewBox="0 0 1055 235" xmlns="http://www.w3.org/2000/svg"><g data-name="Layer 1"><path fill-rule="evenodd" fill="#b20837" d="m49.57 41.069 33.953-.014c6.68 9.427 46.433 75.057 57.737 88.382 6.371-7.932 53.161-81.811 57.037-89.565-8.491-13.058-30.378-28.167-50.018-34.288-66-20.569-136.846 16.833-147.218 93.297-10.047 74.063 52.838 132.96 122.007 126.396 36.303-3.444 43.221-15.69 59.365-22.617 5.13 10.806 10.434 21.263 15.661 31.843l-.426-135.159c-17.86 25.289-40.702 59.38-57.842 83.369-13.884-20.216-38.376-57.797-53.55-80.585l-.022 87.463-37.014-.302.33-148.22z"/><path fill="#b20837" d="M297.603 85.064c.096 7.21.144 14.757.144 22.64v22.93c0 8.462-.048 17.066-.144 25.815-.097 5.384-1.178 10.143-3.245 14.277-2.067 4.135-4.831 7.596-8.34 10.384-3.51 2.788-7.5 4.903-12.018 6.345-4.52 1.442-9.254 2.163-14.254 2.163-4.903 0-9.566-.697-14.036-2.09-4.447-1.395-8.389-3.486-11.802-6.274-3.413-2.788-6.105-6.273-8.124-10.456-2.019-4.182-3.076-9.061-3.173-14.637a833.5 833.5 0 0 1-.216-24.66c.048-8.365.072-16.008.072-22.93 0-8.077.048-15.912.144-23.507h27.4c0 1.441-.023 3.941-.071 7.499a916.445 916.445 0 0 0-.072 12.258v41.677c0 3.558.048 6.105.144 7.644.096 3.653 1.082 6.514 2.98 8.58 1.875 2.068 4.327 3.101 7.331 3.101 3.1 0 5.48-1.033 7.115-3.1 1.658-2.067 2.572-4.928 2.764-8.581 0-1.346.024-3.798.072-7.355.048-3.557.072-7.62.072-12.186V105.325c0-4.662-.024-8.796-.072-12.402a660.656 660.656 0 0 1-.072-7.86h27.4zM238.186 69.2c0-2.788.986-5.192 2.957-7.21 1.97-2.02 4.398-3.03 7.283-3.03 2.788 0 5.143 1.01 7.066 3.03 1.923 2.018 2.884 4.422 2.884 7.21 0 2.788-.961 5.168-2.884 7.138-1.923 1.971-4.278 2.957-7.066 2.957-2.885 0-5.312-.986-7.283-2.957-1.971-1.97-2.957-4.35-2.957-7.138zm25.382 0c0-2.788.985-5.192 2.956-7.21 1.971-2.02 4.35-3.03 7.14-3.03 2.787 0 5.167 1.01 7.138 3.03 1.97 2.018 2.956 4.422 2.956 7.21 0 2.788-.985 5.168-2.956 7.138-1.971 1.971-4.351 2.957-7.139 2.957-2.788 0-5.168-.986-7.139-2.957-1.97-1.97-2.956-4.35-2.956-7.138zm83.067 96.623c2.788 0 4.976-.505 6.562-1.514 1.586-1.01 2.38-2.62 2.38-4.831a6.435 6.435 0 0 0-.866-3.245c-.577-1.01-1.586-2.02-3.029-3.029-1.442-1.009-3.437-2.043-5.984-3.1-2.548-1.058-5.793-2.26-9.735-3.606-3.75-1.25-7.259-2.74-10.527-4.47-3.27-1.73-6.13-3.846-8.581-6.346-2.452-2.5-4.375-5.432-5.769-8.797-1.394-3.365-2.09-7.307-2.09-11.825 0-5.384 1.033-10.095 3.1-14.133 2.067-4.038 4.831-7.38 8.292-10.023 3.461-2.644 7.427-4.639 11.898-5.985 4.47-1.346 9.157-2.019 14.06-2.019 4.904 0 9.591.673 14.061 2.02 4.471 1.345 8.365 3.436 11.682 6.273 3.317 2.836 5.913 6.49 7.787 10.96 1.875 4.47 2.668 9.83 2.38 16.08l-26.68.72c0-4.326-.817-7.45-2.451-9.373-1.635-1.923-3.99-2.884-7.067-2.884-2.211 0-4.134.528-5.768 1.586-1.635 1.057-2.452 2.644-2.452 4.759 0 1.346.24 2.524.721 3.533.48 1.01 1.418 2.02 2.812 3.029 1.394 1.01 3.365 2.09 5.913 3.244 2.548 1.154 5.937 2.452 10.167 3.894 3.942 1.442 7.571 3.005 10.888 4.687 3.317 1.683 6.153 3.726 8.509 6.13 2.355 2.403 4.206 5.311 5.552 8.724 1.346 3.413 2.019 7.571 2.019 12.475 0 4.807-.961 9.109-2.884 12.907a28.55 28.55 0 0 1-7.932 9.662c-3.365 2.644-7.33 4.687-11.898 6.13-4.566 1.441-9.542 2.162-14.926 2.162-5.191 0-10.167-.673-14.926-2.019s-8.941-3.46-12.547-6.345c-3.605-2.884-6.417-6.562-8.436-11.032s-2.884-9.783-2.596-15.936l26.68-.721c0 4.519 1.153 7.691 3.46 9.518 2.308 1.827 5.048 2.74 8.221 2.74zm-3.173 25.959c5.865 0 10.48 1.586 13.845 4.759 3.365 3.172 5.047 7.066 5.047 11.681 0 2.5-.48 4.783-1.442 6.85-.961 2.067-2.26 3.822-3.894 5.264-1.634 1.442-3.557 2.572-5.768 3.389-2.211.817-4.567 1.226-7.067 1.226-2.403 0-4.71-.385-6.922-1.154-2.211-.77-4.158-1.875-5.84-3.317-1.683-1.442-2.98-3.22-3.894-5.336-.914-2.115-1.274-4.567-1.082-7.355h13.7c0 .962.313 1.9.938 2.812.625.914 1.61 1.37 2.956 1.37 1.058 0 1.85-.312 2.38-.937.529-.625.793-1.466.793-2.524 0-.961-.312-1.826-.937-2.595-.625-.77-1.563-1.154-2.813-1.154v-12.98zm66.05-82.923h-22.93V85.064h74.703v23.795h-22.93v78.596h-28.843V108.86zm58.263-23.795h61.146v23.795h-32.304V124h29.276v23.074h-29.276v16.585h32.304v23.795h-61.146V85.064zm103.69 63.886v38.505h-28.843V85.064c2.692 0 5.624-.049 8.797-.145 2.692 0 5.792-.024 9.302-.072 3.509-.048 7.186-.072 11.032-.072 6.466 0 12.499.385 18.075 1.154 5.6.769 10.48 2.187 14.613 4.254 4.158 2.067 7.427 4.975 9.855 8.725 2.403 3.75 3.605 8.605 3.605 14.565 0 3.654-.48 6.947-1.442 9.88-.961 2.932-2.331 5.551-4.062 7.859a27.276 27.276 0 0 1-6.08 5.913 43.115 43.115 0 0 1-7.404 4.182c1.058.577 2.187 1.514 3.39 2.812 1.2 1.298 2.475 3.245 3.82 5.84 1.443 2.98 3.102 6.586 4.976 10.817 1.875 4.23 3.678 8.364 5.408 12.402 1.923 4.615 3.942 9.374 6.057 14.277h-30.717L575.79 148.95h-4.327zm17.594-30.862c0-3.557-1.058-6.249-3.173-8.076-2.115-1.826-5.576-2.74-10.384-2.74-.96 0-1.706.024-2.235.072-.529.049-.937.073-1.226.073h-.577v21.343c.097.096.289.144.577.144.289.097 1.154.145 2.596.145 1.635 0 3.317-.12 5.048-.36 1.73-.241 3.293-.746 4.687-1.515 1.394-.77 2.523-1.875 3.389-3.317.865-1.442 1.298-3.365 1.298-5.769zm68.068 69.367h-28.842V85.064h28.842v102.391zM629.006 64.873c0-3.941 1.322-7.114 3.99-9.518 2.644-2.403 5.864-3.605 9.638-3.605 3.87 0 7.139 1.202 9.783 3.605 2.668 2.404 3.99 5.577 3.99 9.518 0 3.75-1.322 6.827-3.99 9.23-2.644 2.404-5.913 3.605-9.783 3.605-3.774 0-6.994-1.201-9.638-3.605-2.668-2.403-3.99-5.48-3.99-9.23zm84.942 103.834-11.393-26.246-5.048-13.845-.288.144 1.442 14.133.289 44.562h-27.401V85.064h28.122l15.286 38.216 4.47 11.393h.29l4.181-11.249 16.73-38.36h27.256v102.391H739.04l.288-44.85 1.443-13.845-.289-.144-5.48 13.989-11.97 26.102h-9.085z"/><path fill="#6d6b6b" d="M778.7 175.197c0-4.519 1.37-8.124 4.134-10.816 2.74-2.692 6.153-4.038 10.215-4.038 4.158 0 7.62 1.346 10.36 4.038 2.763 2.692 4.133 6.297 4.133 10.816 0 4.327-1.37 7.811-4.134 10.456-2.74 2.643-6.2 3.965-10.359 3.965-4.062 0-7.475-1.322-10.215-3.965-2.764-2.645-4.134-6.13-4.134-10.456zm120.707-90.133v102.391h-25.382l-24.228-42.11-4.182-11.826v53.936h-27.4V85.064h24.948l25.382 47.59 3.461 9.662V85.064h27.4zm14.421 0h61.147v23.795H942.67V124h29.275v23.074h-29.275v16.585h32.303v23.795h-61.146V85.064zm89.124 23.795h-22.93V85.064h74.703v23.795h-22.93v78.596h-28.843V108.86z"/></g></svg>