<svg viewBox="0 0 487 487" xmlns="http://www.w3.org/2000/svg"><path d="m140.457 85.162 70.567-.03c13.882 19.595 96.506 156 120 183.694C344.265 252.34 441.513 98.79 449.57 82.675c-17.648-27.14-63.138-58.543-103.958-71.265C208.44-31.34 61.192 46.397 39.635 205.318 18.753 359.252 149.453 481.663 293.213 468.021c75.453-7.16 89.832-32.61 123.386-47.008 10.663 22.46 21.685 44.193 32.549 66.182l-.885-280.914c-37.12 52.56-84.595 123.414-120.22 173.273-28.855-42.016-79.76-120.123-111.296-167.488L216.7 393.85l-76.932-.627.688-308.06z" fill="#b20837" fill-rule="evenodd" data-name="Layer 1"/></svg>