<?xml version="1.0" standalone="no"?>
<!DOCTYPE svg PUBLIC "-//W3C//DTD SVG 20010904//EN"
 "http://www.w3.org/TR/2001/REC-SVG-20010904/DTD/svg10.dtd">
<svg version="1.0" xmlns="http://www.w3.org/2000/svg"
 width="700.000000pt" height="700.000000pt" viewBox="0 0 700.000000 700.000000"
 preserveAspectRatio="xMidYMid meet">
<metadata>
Created by potrace 1.14, written by Peter Selinger 2001-2017
</metadata>
<g transform="translate(0.000000,700.000000) scale(0.100000,-0.100000)"
fill="#000000" stroke="none">
<path d="M3629 6996 c-2 -2 -41 -7 -86 -10 -45 -4 -90 -8 -100 -10 -10 -2 -40
-7 -68 -10 -27 -4 -57 -9 -65 -11 -8 -2 -31 -6 -50 -9 -95 -15 -187 -37 -340
-81 -254 -73 -526 -190 -759 -326 -63 -37 -242 -157 -301 -202 -702 -540
-1139 -1299 -1280 -2227 -30 -197 -35 -269 -35 -525 0 -264 7 -369 36 -530 6
-33 13 -73 16 -90 2 -16 17 -84 33 -150 137 -567 418 -1081 826 -1505 116
-121 258 -251 362 -330 18 -14 43 -33 55 -43 29 -25 304 -207 311 -207 4 0 23
-11 44 -23 88 -56 426 -217 455 -217 7 0 17 -4 22 -9 25 -23 441 -143 570
-164 204 -34 264 -41 405 -52 62 -5 348 -5 425 -1 71 5 198 16 226 21 13 2 44
6 69 9 25 4 56 8 70 10 14 3 42 7 63 10 69 11 191 37 267 57 41 12 82 22 90
24 26 6 213 72 255 90 49 21 217 105 265 132 39 23 71 42 262 160 73 44 174
101 223 126 l90 45 235 -476 236 -476 -2 579 c-1 319 -4 1225 -6 2012 -1 788
-6 1433 -9 1433 -5 0 -224 -308 -358 -505 -30 -44 -68 -98 -83 -120 -15 -22
-56 -80 -89 -130 -34 -49 -85 -124 -114 -165 -28 -41 -209 -302 -400 -580
-442 -641 -417 -605 -558 -804 l-120 -169 -19 24 c-20 26 -856 1280 -1076
1614 -72 110 -137 208 -144 218 -7 9 -89 134 -183 277 -93 143 -172 260 -175
260 -3 0 -5 -585 -5 -1300 l0 -1301 -495 5 c-272 2 -521 5 -553 5 l-58 1 5
2205 c3 1213 7 2209 10 2213 2 4 231 8 507 7 l502 0 34 -50 c19 -28 104 -160
190 -295 85 -135 166 -261 178 -280 13 -19 74 -116 136 -215 197 -315 299
-477 464 -735 22 -36 81 -127 131 -202 49 -76 94 -146 99 -155 32 -56 334
-500 379 -558 18 -22 39 -51 48 -65 9 -14 27 -38 41 -54 l24 -29 44 59 c91
122 422 629 787 1204 135 212 259 408 277 435 140 217 595 962 595 975 0 12
-106 148 -164 209 -76 80 -226 212 -330 289 -100 75 -254 182 -261 182 -3 0
-28 15 -57 34 -82 52 -312 170 -428 219 -139 59 -363 131 -506 162 -10 2 -59
13 -109 24 -49 11 -139 27 -200 35 -60 9 -128 18 -150 22 -45 6 -620 15 -626
10z"/>
</g>
</svg>
